<svg xmlns="http://www.w3.org/2000/svg" xmlns:xlink="http://www.w3.org/1999/xlink" width="500" zoomAndPan="magnify" viewBox="0 0 375 374.999991" height="500" preserveAspectRatio="xMidYMid meet" version="1.0"><defs><g/><clipPath id="bfaff38546"><path d="M 96.707031 157.789062 L 118.457031 157.789062 L 118.457031 179.539062 L 96.707031 179.539062 Z M 96.707031 157.789062 " clip-rule="nonzero"/></clipPath></defs><g fill="#000000" fill-opacity="0.302"><g transform="translate(25.136364, 186.17297)"><g><path d="M 8.4375 -11.25 L 8.4375 0 L 2.046875 0 L 2.046875 -28.046875 L 8.4375 -28.046875 L 8.4375 -16.859375 L 17.46875 -16.859375 L 17.46875 -28.046875 L 23.875 -28.046875 L 23.875 0 L 17.46875 0 L 17.46875 -11.25 Z M 8.4375 -11.25 "/></g></g></g><g fill="#000000" fill-opacity="0.302"><g transform="translate(51.041391, 186.17297)"><g><path d="M 18.09375 -28.046875 L 18.09375 -22.4375 L 8.4375 -22.4375 L 8.4375 -16.859375 L 17.6875 -16.859375 L 17.6875 -11.25 L 8.4375 -11.25 L 8.4375 -5.609375 L 18.09375 -5.609375 L 18.09375 0 L 2.046875 0 L 2.046875 -28.046875 Z M 18.09375 -28.046875 "/></g></g></g><g fill="#000000" fill-opacity="0.302"><g transform="translate(70.759137, 186.17297)"><g><path d="M 2.046875 -28.046875 L 12.0625 -28.046875 C 14.757812 -28.046875 16.957031 -27.328125 18.65625 -25.890625 C 20.363281 -24.453125 21.21875 -22.394531 21.21875 -19.71875 C 21.21875 -17.65625 20.703125 -15.925781 19.671875 -14.53125 C 18.640625 -13.132812 17.238281 -12.15625 15.46875 -11.59375 L 25.125 0 L 17 0 L 8.4375 -11.078125 L 8.4375 0 L 2.046875 0 Z M 8.4375 -15.609375 L 9.1875 -15.609375 C 9.769531 -15.609375 10.265625 -15.617188 10.671875 -15.640625 C 11.078125 -15.660156 11.539062 -15.738281 12.0625 -15.875 C 12.59375 -16.007812 13.015625 -16.203125 13.328125 -16.453125 C 13.640625 -16.703125 13.910156 -17.066406 14.140625 -17.546875 C 14.367188 -18.023438 14.484375 -18.601562 14.484375 -19.28125 C 14.484375 -19.957031 14.367188 -20.53125 14.140625 -21 C 13.910156 -21.476562 13.640625 -21.84375 13.328125 -22.09375 C 13.015625 -22.34375 12.59375 -22.535156 12.0625 -22.671875 C 11.539062 -22.804688 11.078125 -22.882812 10.671875 -22.90625 C 10.265625 -22.9375 9.769531 -22.953125 9.1875 -22.953125 L 8.4375 -22.953125 Z M 8.4375 -15.609375 "/></g></g></g><g fill="#000000" fill-opacity="0.302"><g transform="translate(95.100352, 186.17297)"><g><path d="M 0.78125 -14.046875 C 0.78125 -18.097656 2.160156 -21.53125 4.921875 -24.34375 C 7.691406 -27.15625 11.023438 -28.5625 14.921875 -28.5625 C 18.847656 -28.5625 22.179688 -27.160156 24.921875 -24.359375 C 27.660156 -21.554688 29.03125 -18.117188 29.03125 -14.046875 C 29.03125 -9.941406 27.679688 -6.488281 24.984375 -3.6875 C 22.285156 -0.882812 18.929688 0.515625 14.921875 0.515625 C 10.816406 0.515625 7.429688 -0.867188 4.765625 -3.640625 C 2.109375 -6.421875 0.78125 -9.890625 0.78125 -14.046875 Z M 7.6875 -14.046875 C 7.6875 -12.566406 7.910156 -11.21875 8.359375 -10 C 8.816406 -8.789062 9.609375 -7.765625 10.734375 -6.921875 C 11.867188 -6.085938 13.265625 -5.671875 14.921875 -5.671875 C 17.304688 -5.671875 19.101562 -6.488281 20.3125 -8.125 C 21.53125 -9.757812 22.140625 -11.734375 22.140625 -14.046875 C 22.140625 -16.328125 21.519531 -18.289062 20.28125 -19.9375 C 19.039062 -21.582031 17.253906 -22.40625 14.921875 -22.40625 C 12.609375 -22.40625 10.820312 -21.582031 9.5625 -19.9375 C 8.3125 -18.289062 7.6875 -16.328125 7.6875 -14.046875 Z M 7.6875 -14.046875 "/></g></g></g><g fill="#000000" fill-opacity="0.302"><g transform="translate(124.914933, 186.17297)"><g><path d="M 18.09375 -28.046875 L 18.09375 -22.4375 L 8.4375 -22.4375 L 8.4375 -16.859375 L 17.6875 -16.859375 L 17.6875 -11.25 L 8.4375 -11.25 L 8.4375 -5.609375 L 18.09375 -5.609375 L 18.09375 0 L 2.046875 0 L 2.046875 -28.046875 Z M 18.09375 -28.046875 "/></g></g></g><g fill="#000000" fill-opacity="0.302"><g transform="translate(144.632678, 186.17297)"><g><path d="M 12.375 -28.5625 C 13.894531 -28.5625 15.378906 -28.335938 16.828125 -27.890625 C 18.273438 -27.453125 19.351562 -27.019531 20.0625 -26.59375 L 21.078125 -25.90625 L 18.5 -20.8125 C 18.289062 -20.945312 18.003906 -21.117188 17.640625 -21.328125 C 17.285156 -21.546875 16.609375 -21.835938 15.609375 -22.203125 C 14.609375 -22.566406 13.675781 -22.75 12.8125 -22.75 C 11.75 -22.75 10.925781 -22.519531 10.34375 -22.0625 C 9.769531 -21.613281 9.484375 -21.003906 9.484375 -20.234375 C 9.484375 -19.847656 9.617188 -19.488281 9.890625 -19.15625 C 10.160156 -18.832031 10.625 -18.484375 11.28125 -18.109375 C 11.945312 -17.734375 12.523438 -17.429688 13.015625 -17.203125 C 13.515625 -16.972656 14.285156 -16.632812 15.328125 -16.1875 C 17.140625 -15.414062 18.6875 -14.363281 19.96875 -13.03125 C 21.25 -11.707031 21.890625 -10.207031 21.890625 -8.53125 C 21.890625 -6.925781 21.597656 -5.519531 21.015625 -4.3125 C 20.441406 -3.113281 19.648438 -2.171875 18.640625 -1.484375 C 17.640625 -0.804688 16.523438 -0.304688 15.296875 0.015625 C 14.078125 0.347656 12.753906 0.515625 11.328125 0.515625 C 10.097656 0.515625 8.894531 0.390625 7.71875 0.140625 C 6.539062 -0.109375 5.550781 -0.421875 4.75 -0.796875 C 3.957031 -1.171875 3.242188 -1.539062 2.609375 -1.90625 C 1.984375 -2.269531 1.519531 -2.578125 1.21875 -2.828125 L 0.78125 -3.203125 L 3.984375 -8.5625 C 4.253906 -8.34375 4.625 -8.054688 5.09375 -7.703125 C 5.570312 -7.347656 6.414062 -6.875 7.625 -6.28125 C 8.84375 -5.695312 9.914062 -5.40625 10.84375 -5.40625 C 13.539062 -5.40625 14.890625 -6.320312 14.890625 -8.15625 C 14.890625 -8.539062 14.789062 -8.894531 14.59375 -9.21875 C 14.40625 -9.550781 14.066406 -9.878906 13.578125 -10.203125 C 13.097656 -10.535156 12.671875 -10.796875 12.296875 -10.984375 C 11.921875 -11.179688 11.304688 -11.476562 10.453125 -11.875 C 9.609375 -12.28125 8.976562 -12.582031 8.5625 -12.78125 C 6.863281 -13.625 5.550781 -14.671875 4.625 -15.921875 C 3.695312 -17.179688 3.234375 -18.535156 3.234375 -19.984375 C 3.234375 -22.503906 4.160156 -24.5625 6.015625 -26.15625 C 7.878906 -27.757812 10 -28.5625 12.375 -28.5625 Z M 12.375 -28.5625 "/></g></g></g><g fill="#000000" fill-opacity="0.302"><g transform="translate(167.478059, 186.17297)"><g/></g></g><g fill="#000000" fill-opacity="0.302"><g transform="translate(176.759, 186.17297)"><g><path d="M 23.59375 -28.046875 L 23.59375 -9.96875 C 23.59375 -6.519531 22.660156 -3.910156 20.796875 -2.140625 C 18.941406 -0.367188 16.222656 0.515625 12.640625 0.515625 C 9.066406 0.515625 6.347656 -0.367188 4.484375 -2.140625 C 2.628906 -3.910156 1.703125 -6.519531 1.703125 -9.96875 L 1.703125 -28.046875 L 8.09375 -28.046875 L 8.09375 -11.828125 C 8.09375 -9.566406 8.445312 -7.992188 9.15625 -7.109375 C 9.875 -6.222656 11.035156 -5.78125 12.640625 -5.78125 C 14.253906 -5.78125 15.414062 -6.222656 16.125 -7.109375 C 16.84375 -7.992188 17.203125 -9.566406 17.203125 -11.828125 L 17.203125 -28.046875 Z M 23.59375 -28.046875 "/></g></g></g><g fill="#000000" fill-opacity="0.302"><g transform="translate(202.0521, 186.17297)"><g><path d="M 8.4375 -17.40625 L 8.4375 0 L 2.046875 0 L 2.046875 -28.046875 L 8.4375 -28.046875 L 19.578125 -10.640625 L 19.65625 -10.640625 L 19.65625 -28.046875 L 26.046875 -28.046875 L 26.046875 0 L 19.65625 0 L 8.5 -17.40625 Z M 8.4375 -17.40625 "/></g></g></g><g fill="#000000" fill-opacity="0.302"><g transform="translate(230.132878, 186.17297)"><g><path d="M 8.4375 -28.046875 L 8.4375 0 L 2.046875 0 L 2.046875 -28.046875 Z M 8.4375 -28.046875 "/></g></g></g><g fill="#000000" fill-opacity="0.302"><g transform="translate(240.603695, 186.17297)"><g><path d="M 10.8125 0 L -0.953125 -28.046875 L 6.25 -28.046875 L 13.328125 -9.625 L 20.40625 -28.046875 L 27.609375 -28.046875 L 15.84375 0 Z M 10.8125 0 "/></g></g></g><g fill="#000000" fill-opacity="0.302"><g transform="translate(267.25664, 186.17297)"><g><path d="M 18.09375 -28.046875 L 18.09375 -22.4375 L 8.4375 -22.4375 L 8.4375 -16.859375 L 17.6875 -16.859375 L 17.6875 -11.25 L 8.4375 -11.25 L 8.4375 -5.609375 L 18.09375 -5.609375 L 18.09375 0 L 2.046875 0 L 2.046875 -28.046875 Z M 18.09375 -28.046875 "/></g></g></g><g fill="#000000" fill-opacity="0.302"><g transform="translate(286.974374, 186.17297)"><g><path d="M 2.046875 -28.046875 L 12.0625 -28.046875 C 14.757812 -28.046875 16.957031 -27.328125 18.65625 -25.890625 C 20.363281 -24.453125 21.21875 -22.394531 21.21875 -19.71875 C 21.21875 -17.65625 20.703125 -15.925781 19.671875 -14.53125 C 18.640625 -13.132812 17.238281 -12.15625 15.46875 -11.59375 L 25.125 0 L 17 0 L 8.4375 -11.078125 L 8.4375 0 L 2.046875 0 Z M 8.4375 -15.609375 L 9.1875 -15.609375 C 9.769531 -15.609375 10.265625 -15.617188 10.671875 -15.640625 C 11.078125 -15.660156 11.539062 -15.738281 12.0625 -15.875 C 12.59375 -16.007812 13.015625 -16.203125 13.328125 -16.453125 C 13.640625 -16.703125 13.910156 -17.066406 14.140625 -17.546875 C 14.367188 -18.023438 14.484375 -18.601562 14.484375 -19.28125 C 14.484375 -19.957031 14.367188 -20.53125 14.140625 -21 C 13.910156 -21.476562 13.640625 -21.84375 13.328125 -22.09375 C 13.015625 -22.34375 12.59375 -22.535156 12.0625 -22.671875 C 11.539062 -22.804688 11.078125 -22.882812 10.671875 -22.90625 C 10.265625 -22.9375 9.769531 -22.953125 9.1875 -22.953125 L 8.4375 -22.953125 Z M 8.4375 -15.609375 "/></g></g></g><g fill="#000000" fill-opacity="0.302"><g transform="translate(311.315589, 186.17297)"><g><path d="M 12.375 -28.5625 C 13.894531 -28.5625 15.378906 -28.335938 16.828125 -27.890625 C 18.273438 -27.453125 19.351562 -27.019531 20.0625 -26.59375 L 21.078125 -25.90625 L 18.5 -20.8125 C 18.289062 -20.945312 18.003906 -21.117188 17.640625 -21.328125 C 17.285156 -21.546875 16.609375 -21.835938 15.609375 -22.203125 C 14.609375 -22.566406 13.675781 -22.75 12.8125 -22.75 C 11.75 -22.75 10.925781 -22.519531 10.34375 -22.0625 C 9.769531 -21.613281 9.484375 -21.003906 9.484375 -20.234375 C 9.484375 -19.847656 9.617188 -19.488281 9.890625 -19.15625 C 10.160156 -18.832031 10.625 -18.484375 11.28125 -18.109375 C 11.945312 -17.734375 12.523438 -17.429688 13.015625 -17.203125 C 13.515625 -16.972656 14.285156 -16.632812 15.328125 -16.1875 C 17.140625 -15.414062 18.6875 -14.363281 19.96875 -13.03125 C 21.25 -11.707031 21.890625 -10.207031 21.890625 -8.53125 C 21.890625 -6.925781 21.597656 -5.519531 21.015625 -4.3125 C 20.441406 -3.113281 19.648438 -2.171875 18.640625 -1.484375 C 17.640625 -0.804688 16.523438 -0.304688 15.296875 0.015625 C 14.078125 0.347656 12.753906 0.515625 11.328125 0.515625 C 10.097656 0.515625 8.894531 0.390625 7.71875 0.140625 C 6.539062 -0.109375 5.550781 -0.421875 4.75 -0.796875 C 3.957031 -1.171875 3.242188 -1.539062 2.609375 -1.90625 C 1.984375 -2.269531 1.519531 -2.578125 1.21875 -2.828125 L 0.78125 -3.203125 L 3.984375 -8.5625 C 4.253906 -8.34375 4.625 -8.054688 5.09375 -7.703125 C 5.570312 -7.347656 6.414062 -6.875 7.625 -6.28125 C 8.84375 -5.695312 9.914062 -5.40625 10.84375 -5.40625 C 13.539062 -5.40625 14.890625 -6.320312 14.890625 -8.15625 C 14.890625 -8.539062 14.789062 -8.894531 14.59375 -9.21875 C 14.40625 -9.550781 14.066406 -9.878906 13.578125 -10.203125 C 13.097656 -10.535156 12.671875 -10.796875 12.296875 -10.984375 C 11.921875 -11.179688 11.304688 -11.476562 10.453125 -11.875 C 9.609375 -12.28125 8.976562 -12.582031 8.5625 -12.78125 C 6.863281 -13.625 5.550781 -14.671875 4.625 -15.921875 C 3.695312 -17.179688 3.234375 -18.535156 3.234375 -19.984375 C 3.234375 -22.503906 4.160156 -24.5625 6.015625 -26.15625 C 7.878906 -27.757812 10 -28.5625 12.375 -28.5625 Z M 12.375 -28.5625 "/></g></g></g><g fill="#000000" fill-opacity="0.302"><g transform="translate(334.16097, 186.17297)"><g><path d="M 18.09375 -28.046875 L 18.09375 -22.4375 L 8.4375 -22.4375 L 8.4375 -16.859375 L 17.6875 -16.859375 L 17.6875 -11.25 L 8.4375 -11.25 L 8.4375 -5.609375 L 18.09375 -5.609375 L 18.09375 0 L 2.046875 0 L 2.046875 -28.046875 Z M 18.09375 -28.046875 "/></g></g></g><g fill="#000000" fill-opacity="0.502"><g transform="translate(23.876777, 184.305559)"><g><path d="M 8.4375 -11.25 L 8.4375 0 L 2.046875 0 L 2.046875 -28.046875 L 8.4375 -28.046875 L 8.4375 -16.859375 L 17.46875 -16.859375 L 17.46875 -28.046875 L 23.875 -28.046875 L 23.875 0 L 17.46875 0 L 17.46875 -11.25 Z M 8.4375 -11.25 "/></g></g></g><g fill="#000000" fill-opacity="0.502"><g transform="translate(49.781805, 184.305559)"><g><path d="M 18.09375 -28.046875 L 18.09375 -22.4375 L 8.4375 -22.4375 L 8.4375 -16.859375 L 17.6875 -16.859375 L 17.6875 -11.25 L 8.4375 -11.25 L 8.4375 -5.609375 L 18.09375 -5.609375 L 18.09375 0 L 2.046875 0 L 2.046875 -28.046875 Z M 18.09375 -28.046875 "/></g></g></g><g fill="#000000" fill-opacity="0.502"><g transform="translate(69.49955, 184.305559)"><g><path d="M 2.046875 -28.046875 L 12.0625 -28.046875 C 14.757812 -28.046875 16.957031 -27.328125 18.65625 -25.890625 C 20.363281 -24.453125 21.21875 -22.394531 21.21875 -19.71875 C 21.21875 -17.65625 20.703125 -15.925781 19.671875 -14.53125 C 18.640625 -13.132812 17.238281 -12.15625 15.46875 -11.59375 L 25.125 0 L 17 0 L 8.4375 -11.078125 L 8.4375 0 L 2.046875 0 Z M 8.4375 -15.609375 L 9.1875 -15.609375 C 9.769531 -15.609375 10.265625 -15.617188 10.671875 -15.640625 C 11.078125 -15.660156 11.539062 -15.738281 12.0625 -15.875 C 12.59375 -16.007812 13.015625 -16.203125 13.328125 -16.453125 C 13.640625 -16.703125 13.910156 -17.066406 14.140625 -17.546875 C 14.367188 -18.023438 14.484375 -18.601562 14.484375 -19.28125 C 14.484375 -19.957031 14.367188 -20.53125 14.140625 -21 C 13.910156 -21.476562 13.640625 -21.84375 13.328125 -22.09375 C 13.015625 -22.34375 12.59375 -22.535156 12.0625 -22.671875 C 11.539062 -22.804688 11.078125 -22.882812 10.671875 -22.90625 C 10.265625 -22.9375 9.769531 -22.953125 9.1875 -22.953125 L 8.4375 -22.953125 Z M 8.4375 -15.609375 "/></g></g></g><g fill="#000000" fill-opacity="0.502"><g transform="translate(93.840765, 184.305559)"><g><path d="M 0.78125 -14.046875 C 0.78125 -18.097656 2.160156 -21.53125 4.921875 -24.34375 C 7.691406 -27.15625 11.023438 -28.5625 14.921875 -28.5625 C 18.847656 -28.5625 22.179688 -27.160156 24.921875 -24.359375 C 27.660156 -21.554688 29.03125 -18.117188 29.03125 -14.046875 C 29.03125 -9.941406 27.679688 -6.488281 24.984375 -3.6875 C 22.285156 -0.882812 18.929688 0.515625 14.921875 0.515625 C 10.816406 0.515625 7.429688 -0.867188 4.765625 -3.640625 C 2.109375 -6.421875 0.78125 -9.890625 0.78125 -14.046875 Z M 7.6875 -14.046875 C 7.6875 -12.566406 7.910156 -11.21875 8.359375 -10 C 8.816406 -8.789062 9.609375 -7.765625 10.734375 -6.921875 C 11.867188 -6.085938 13.265625 -5.671875 14.921875 -5.671875 C 17.304688 -5.671875 19.101562 -6.488281 20.3125 -8.125 C 21.53125 -9.757812 22.140625 -11.734375 22.140625 -14.046875 C 22.140625 -16.328125 21.519531 -18.289062 20.28125 -19.9375 C 19.039062 -21.582031 17.253906 -22.40625 14.921875 -22.40625 C 12.609375 -22.40625 10.820312 -21.582031 9.5625 -19.9375 C 8.3125 -18.289062 7.6875 -16.328125 7.6875 -14.046875 Z M 7.6875 -14.046875 "/></g></g></g><g fill="#000000" fill-opacity="0.502"><g transform="translate(123.655346, 184.305559)"><g><path d="M 18.09375 -28.046875 L 18.09375 -22.4375 L 8.4375 -22.4375 L 8.4375 -16.859375 L 17.6875 -16.859375 L 17.6875 -11.25 L 8.4375 -11.25 L 8.4375 -5.609375 L 18.09375 -5.609375 L 18.09375 0 L 2.046875 0 L 2.046875 -28.046875 Z M 18.09375 -28.046875 "/></g></g></g><g fill="#000000" fill-opacity="0.502"><g transform="translate(143.373092, 184.305559)"><g><path d="M 12.375 -28.5625 C 13.894531 -28.5625 15.378906 -28.335938 16.828125 -27.890625 C 18.273438 -27.453125 19.351562 -27.019531 20.0625 -26.59375 L 21.078125 -25.90625 L 18.5 -20.8125 C 18.289062 -20.945312 18.003906 -21.117188 17.640625 -21.328125 C 17.285156 -21.546875 16.609375 -21.835938 15.609375 -22.203125 C 14.609375 -22.566406 13.675781 -22.75 12.8125 -22.75 C 11.75 -22.75 10.925781 -22.519531 10.34375 -22.0625 C 9.769531 -21.613281 9.484375 -21.003906 9.484375 -20.234375 C 9.484375 -19.847656 9.617188 -19.488281 9.890625 -19.15625 C 10.160156 -18.832031 10.625 -18.484375 11.28125 -18.109375 C 11.945312 -17.734375 12.523438 -17.429688 13.015625 -17.203125 C 13.515625 -16.972656 14.285156 -16.632812 15.328125 -16.1875 C 17.140625 -15.414062 18.6875 -14.363281 19.96875 -13.03125 C 21.25 -11.707031 21.890625 -10.207031 21.890625 -8.53125 C 21.890625 -6.925781 21.597656 -5.519531 21.015625 -4.3125 C 20.441406 -3.113281 19.648438 -2.171875 18.640625 -1.484375 C 17.640625 -0.804688 16.523438 -0.304688 15.296875 0.015625 C 14.078125 0.347656 12.753906 0.515625 11.328125 0.515625 C 10.097656 0.515625 8.894531 0.390625 7.71875 0.140625 C 6.539062 -0.109375 5.550781 -0.421875 4.75 -0.796875 C 3.957031 -1.171875 3.242188 -1.539062 2.609375 -1.90625 C 1.984375 -2.269531 1.519531 -2.578125 1.21875 -2.828125 L 0.78125 -3.203125 L 3.984375 -8.5625 C 4.253906 -8.34375 4.625 -8.054688 5.09375 -7.703125 C 5.570312 -7.347656 6.414062 -6.875 7.625 -6.28125 C 8.84375 -5.695312 9.914062 -5.40625 10.84375 -5.40625 C 13.539062 -5.40625 14.890625 -6.320312 14.890625 -8.15625 C 14.890625 -8.539062 14.789062 -8.894531 14.59375 -9.21875 C 14.40625 -9.550781 14.066406 -9.878906 13.578125 -10.203125 C 13.097656 -10.535156 12.671875 -10.796875 12.296875 -10.984375 C 11.921875 -11.179688 11.304688 -11.476562 10.453125 -11.875 C 9.609375 -12.28125 8.976562 -12.582031 8.5625 -12.78125 C 6.863281 -13.625 5.550781 -14.671875 4.625 -15.921875 C 3.695312 -17.179688 3.234375 -18.535156 3.234375 -19.984375 C 3.234375 -22.503906 4.160156 -24.5625 6.015625 -26.15625 C 7.878906 -27.757812 10 -28.5625 12.375 -28.5625 Z M 12.375 -28.5625 "/></g></g></g><g fill="#000000" fill-opacity="0.502"><g transform="translate(166.218473, 184.305559)"><g/></g></g><g fill="#000000" fill-opacity="0.502"><g transform="translate(175.499413, 184.305559)"><g><path d="M 23.59375 -28.046875 L 23.59375 -9.96875 C 23.59375 -6.519531 22.660156 -3.910156 20.796875 -2.140625 C 18.941406 -0.367188 16.222656 0.515625 12.640625 0.515625 C 9.066406 0.515625 6.347656 -0.367188 4.484375 -2.140625 C 2.628906 -3.910156 1.703125 -6.519531 1.703125 -9.96875 L 1.703125 -28.046875 L 8.09375 -28.046875 L 8.09375 -11.828125 C 8.09375 -9.566406 8.445312 -7.992188 9.15625 -7.109375 C 9.875 -6.222656 11.035156 -5.78125 12.640625 -5.78125 C 14.253906 -5.78125 15.414062 -6.222656 16.125 -7.109375 C 16.84375 -7.992188 17.203125 -9.566406 17.203125 -11.828125 L 17.203125 -28.046875 Z M 23.59375 -28.046875 "/></g></g></g><g fill="#000000" fill-opacity="0.502"><g transform="translate(200.792513, 184.305559)"><g><path d="M 8.4375 -17.40625 L 8.4375 0 L 2.046875 0 L 2.046875 -28.046875 L 8.4375 -28.046875 L 19.578125 -10.640625 L 19.65625 -10.640625 L 19.65625 -28.046875 L 26.046875 -28.046875 L 26.046875 0 L 19.65625 0 L 8.5 -17.40625 Z M 8.4375 -17.40625 "/></g></g></g><g fill="#000000" fill-opacity="0.502"><g transform="translate(228.873292, 184.305559)"><g><path d="M 8.4375 -28.046875 L 8.4375 0 L 2.046875 0 L 2.046875 -28.046875 Z M 8.4375 -28.046875 "/></g></g></g><g fill="#000000" fill-opacity="0.502"><g transform="translate(239.344109, 184.305559)"><g><path d="M 10.8125 0 L -0.953125 -28.046875 L 6.25 -28.046875 L 13.328125 -9.625 L 20.40625 -28.046875 L 27.609375 -28.046875 L 15.84375 0 Z M 10.8125 0 "/></g></g></g><g fill="#000000" fill-opacity="0.502"><g transform="translate(265.997053, 184.305559)"><g><path d="M 18.09375 -28.046875 L 18.09375 -22.4375 L 8.4375 -22.4375 L 8.4375 -16.859375 L 17.6875 -16.859375 L 17.6875 -11.25 L 8.4375 -11.25 L 8.4375 -5.609375 L 18.09375 -5.609375 L 18.09375 0 L 2.046875 0 L 2.046875 -28.046875 Z M 18.09375 -28.046875 "/></g></g></g><g fill="#000000" fill-opacity="0.502"><g transform="translate(285.714787, 184.305559)"><g><path d="M 2.046875 -28.046875 L 12.0625 -28.046875 C 14.757812 -28.046875 16.957031 -27.328125 18.65625 -25.890625 C 20.363281 -24.453125 21.21875 -22.394531 21.21875 -19.71875 C 21.21875 -17.65625 20.703125 -15.925781 19.671875 -14.53125 C 18.640625 -13.132812 17.238281 -12.15625 15.46875 -11.59375 L 25.125 0 L 17 0 L 8.4375 -11.078125 L 8.4375 0 L 2.046875 0 Z M 8.4375 -15.609375 L 9.1875 -15.609375 C 9.769531 -15.609375 10.265625 -15.617188 10.671875 -15.640625 C 11.078125 -15.660156 11.539062 -15.738281 12.0625 -15.875 C 12.59375 -16.007812 13.015625 -16.203125 13.328125 -16.453125 C 13.640625 -16.703125 13.910156 -17.066406 14.140625 -17.546875 C 14.367188 -18.023438 14.484375 -18.601562 14.484375 -19.28125 C 14.484375 -19.957031 14.367188 -20.53125 14.140625 -21 C 13.910156 -21.476562 13.640625 -21.84375 13.328125 -22.09375 C 13.015625 -22.34375 12.59375 -22.535156 12.0625 -22.671875 C 11.539062 -22.804688 11.078125 -22.882812 10.671875 -22.90625 C 10.265625 -22.9375 9.769531 -22.953125 9.1875 -22.953125 L 8.4375 -22.953125 Z M 8.4375 -15.609375 "/></g></g></g><g fill="#000000" fill-opacity="0.502"><g transform="translate(310.056003, 184.305559)"><g><path d="M 12.375 -28.5625 C 13.894531 -28.5625 15.378906 -28.335938 16.828125 -27.890625 C 18.273438 -27.453125 19.351562 -27.019531 20.0625 -26.59375 L 21.078125 -25.90625 L 18.5 -20.8125 C 18.289062 -20.945312 18.003906 -21.117188 17.640625 -21.328125 C 17.285156 -21.546875 16.609375 -21.835938 15.609375 -22.203125 C 14.609375 -22.566406 13.675781 -22.75 12.8125 -22.75 C 11.75 -22.75 10.925781 -22.519531 10.34375 -22.0625 C 9.769531 -21.613281 9.484375 -21.003906 9.484375 -20.234375 C 9.484375 -19.847656 9.617188 -19.488281 9.890625 -19.15625 C 10.160156 -18.832031 10.625 -18.484375 11.28125 -18.109375 C 11.945312 -17.734375 12.523438 -17.429688 13.015625 -17.203125 C 13.515625 -16.972656 14.285156 -16.632812 15.328125 -16.1875 C 17.140625 -15.414062 18.6875 -14.363281 19.96875 -13.03125 C 21.25 -11.707031 21.890625 -10.207031 21.890625 -8.53125 C 21.890625 -6.925781 21.597656 -5.519531 21.015625 -4.3125 C 20.441406 -3.113281 19.648438 -2.171875 18.640625 -1.484375 C 17.640625 -0.804688 16.523438 -0.304688 15.296875 0.015625 C 14.078125 0.347656 12.753906 0.515625 11.328125 0.515625 C 10.097656 0.515625 8.894531 0.390625 7.71875 0.140625 C 6.539062 -0.109375 5.550781 -0.421875 4.75 -0.796875 C 3.957031 -1.171875 3.242188 -1.539062 2.609375 -1.90625 C 1.984375 -2.269531 1.519531 -2.578125 1.21875 -2.828125 L 0.78125 -3.203125 L 3.984375 -8.5625 C 4.253906 -8.34375 4.625 -8.054688 5.09375 -7.703125 C 5.570312 -7.347656 6.414062 -6.875 7.625 -6.28125 C 8.84375 -5.695312 9.914062 -5.40625 10.84375 -5.40625 C 13.539062 -5.40625 14.890625 -6.320312 14.890625 -8.15625 C 14.890625 -8.539062 14.789062 -8.894531 14.59375 -9.21875 C 14.40625 -9.550781 14.066406 -9.878906 13.578125 -10.203125 C 13.097656 -10.535156 12.671875 -10.796875 12.296875 -10.984375 C 11.921875 -11.179688 11.304688 -11.476562 10.453125 -11.875 C 9.609375 -12.28125 8.976562 -12.582031 8.5625 -12.78125 C 6.863281 -13.625 5.550781 -14.671875 4.625 -15.921875 C 3.695312 -17.179688 3.234375 -18.535156 3.234375 -19.984375 C 3.234375 -22.503906 4.160156 -24.5625 6.015625 -26.15625 C 7.878906 -27.757812 10 -28.5625 12.375 -28.5625 Z M 12.375 -28.5625 "/></g></g></g><g fill="#000000" fill-opacity="0.502"><g transform="translate(332.901384, 184.305559)"><g><path d="M 18.09375 -28.046875 L 18.09375 -22.4375 L 8.4375 -22.4375 L 8.4375 -16.859375 L 17.6875 -16.859375 L 17.6875 -11.25 L 8.4375 -11.25 L 8.4375 -5.609375 L 18.09375 -5.609375 L 18.09375 0 L 2.046875 0 L 2.046875 -28.046875 Z M 18.09375 -28.046875 "/></g></g></g><g fill="#faf6f5" fill-opacity="1"><g transform="translate(22.617191, 182.438148)"><g><path d="M 8.4375 -11.25 L 8.4375 0 L 2.046875 0 L 2.046875 -28.046875 L 8.4375 -28.046875 L 8.4375 -16.859375 L 17.46875 -16.859375 L 17.46875 -28.046875 L 23.875 -28.046875 L 23.875 0 L 17.46875 0 L 17.46875 -11.25 Z M 8.4375 -11.25 "/></g></g></g><g fill="#faf6f5" fill-opacity="1"><g transform="translate(48.522218, 182.438148)"><g><path d="M 18.09375 -28.046875 L 18.09375 -22.4375 L 8.4375 -22.4375 L 8.4375 -16.859375 L 17.6875 -16.859375 L 17.6875 -11.25 L 8.4375 -11.25 L 8.4375 -5.609375 L 18.09375 -5.609375 L 18.09375 0 L 2.046875 0 L 2.046875 -28.046875 Z M 18.09375 -28.046875 "/></g></g></g><g fill="#faf6f5" fill-opacity="1"><g transform="translate(68.239964, 182.438148)"><g><path d="M 2.046875 -28.046875 L 12.0625 -28.046875 C 14.757812 -28.046875 16.957031 -27.328125 18.65625 -25.890625 C 20.363281 -24.453125 21.21875 -22.394531 21.21875 -19.71875 C 21.21875 -17.65625 20.703125 -15.925781 19.671875 -14.53125 C 18.640625 -13.132812 17.238281 -12.15625 15.46875 -11.59375 L 25.125 0 L 17 0 L 8.4375 -11.078125 L 8.4375 0 L 2.046875 0 Z M 8.4375 -15.609375 L 9.1875 -15.609375 C 9.769531 -15.609375 10.265625 -15.617188 10.671875 -15.640625 C 11.078125 -15.660156 11.539062 -15.738281 12.0625 -15.875 C 12.59375 -16.007812 13.015625 -16.203125 13.328125 -16.453125 C 13.640625 -16.703125 13.910156 -17.066406 14.140625 -17.546875 C 14.367188 -18.023438 14.484375 -18.601562 14.484375 -19.28125 C 14.484375 -19.957031 14.367188 -20.53125 14.140625 -21 C 13.910156 -21.476562 13.640625 -21.84375 13.328125 -22.09375 C 13.015625 -22.34375 12.59375 -22.535156 12.0625 -22.671875 C 11.539062 -22.804688 11.078125 -22.882812 10.671875 -22.90625 C 10.265625 -22.9375 9.769531 -22.953125 9.1875 -22.953125 L 8.4375 -22.953125 Z M 8.4375 -15.609375 "/></g></g></g><g fill="#faf6f5" fill-opacity="1"><g transform="translate(92.581179, 182.438148)"><g><path d="M 0.78125 -14.046875 C 0.78125 -18.097656 2.160156 -21.53125 4.921875 -24.34375 C 7.691406 -27.15625 11.023438 -28.5625 14.921875 -28.5625 C 18.847656 -28.5625 22.179688 -27.160156 24.921875 -24.359375 C 27.660156 -21.554688 29.03125 -18.117188 29.03125 -14.046875 C 29.03125 -9.941406 27.679688 -6.488281 24.984375 -3.6875 C 22.285156 -0.882812 18.929688 0.515625 14.921875 0.515625 C 10.816406 0.515625 7.429688 -0.867188 4.765625 -3.640625 C 2.109375 -6.421875 0.78125 -9.890625 0.78125 -14.046875 Z M 7.6875 -14.046875 C 7.6875 -12.566406 7.910156 -11.21875 8.359375 -10 C 8.816406 -8.789062 9.609375 -7.765625 10.734375 -6.921875 C 11.867188 -6.085938 13.265625 -5.671875 14.921875 -5.671875 C 17.304688 -5.671875 19.101562 -6.488281 20.3125 -8.125 C 21.53125 -9.757812 22.140625 -11.734375 22.140625 -14.046875 C 22.140625 -16.328125 21.519531 -18.289062 20.28125 -19.9375 C 19.039062 -21.582031 17.253906 -22.40625 14.921875 -22.40625 C 12.609375 -22.40625 10.820312 -21.582031 9.5625 -19.9375 C 8.3125 -18.289062 7.6875 -16.328125 7.6875 -14.046875 Z M 7.6875 -14.046875 "/></g></g></g><g fill="#faf6f5" fill-opacity="1"><g transform="translate(122.39576, 182.438148)"><g><path d="M 18.09375 -28.046875 L 18.09375 -22.4375 L 8.4375 -22.4375 L 8.4375 -16.859375 L 17.6875 -16.859375 L 17.6875 -11.25 L 8.4375 -11.25 L 8.4375 -5.609375 L 18.09375 -5.609375 L 18.09375 0 L 2.046875 0 L 2.046875 -28.046875 Z M 18.09375 -28.046875 "/></g></g></g><g fill="#faf6f5" fill-opacity="1"><g transform="translate(142.113505, 182.438148)"><g><path d="M 12.375 -28.5625 C 13.894531 -28.5625 15.378906 -28.335938 16.828125 -27.890625 C 18.273438 -27.453125 19.351562 -27.019531 20.0625 -26.59375 L 21.078125 -25.90625 L 18.5 -20.8125 C 18.289062 -20.945312 18.003906 -21.117188 17.640625 -21.328125 C 17.285156 -21.546875 16.609375 -21.835938 15.609375 -22.203125 C 14.609375 -22.566406 13.675781 -22.75 12.8125 -22.75 C 11.75 -22.75 10.925781 -22.519531 10.34375 -22.0625 C 9.769531 -21.613281 9.484375 -21.003906 9.484375 -20.234375 C 9.484375 -19.847656 9.617188 -19.488281 9.890625 -19.15625 C 10.160156 -18.832031 10.625 -18.484375 11.28125 -18.109375 C 11.945312 -17.734375 12.523438 -17.429688 13.015625 -17.203125 C 13.515625 -16.972656 14.285156 -16.632812 15.328125 -16.1875 C 17.140625 -15.414062 18.6875 -14.363281 19.96875 -13.03125 C 21.25 -11.707031 21.890625 -10.207031 21.890625 -8.53125 C 21.890625 -6.925781 21.597656 -5.519531 21.015625 -4.3125 C 20.441406 -3.113281 19.648438 -2.171875 18.640625 -1.484375 C 17.640625 -0.804688 16.523438 -0.304688 15.296875 0.015625 C 14.078125 0.347656 12.753906 0.515625 11.328125 0.515625 C 10.097656 0.515625 8.894531 0.390625 7.71875 0.140625 C 6.539062 -0.109375 5.550781 -0.421875 4.75 -0.796875 C 3.957031 -1.171875 3.242188 -1.539062 2.609375 -1.90625 C 1.984375 -2.269531 1.519531 -2.578125 1.21875 -2.828125 L 0.78125 -3.203125 L 3.984375 -8.5625 C 4.253906 -8.34375 4.625 -8.054688 5.09375 -7.703125 C 5.570312 -7.347656 6.414062 -6.875 7.625 -6.28125 C 8.84375 -5.695312 9.914062 -5.40625 10.84375 -5.40625 C 13.539062 -5.40625 14.890625 -6.320312 14.890625 -8.15625 C 14.890625 -8.539062 14.789062 -8.894531 14.59375 -9.21875 C 14.40625 -9.550781 14.066406 -9.878906 13.578125 -10.203125 C 13.097656 -10.535156 12.671875 -10.796875 12.296875 -10.984375 C 11.921875 -11.179688 11.304688 -11.476562 10.453125 -11.875 C 9.609375 -12.28125 8.976562 -12.582031 8.5625 -12.78125 C 6.863281 -13.625 5.550781 -14.671875 4.625 -15.921875 C 3.695312 -17.179688 3.234375 -18.535156 3.234375 -19.984375 C 3.234375 -22.503906 4.160156 -24.5625 6.015625 -26.15625 C 7.878906 -27.757812 10 -28.5625 12.375 -28.5625 Z M 12.375 -28.5625 "/></g></g></g><g fill="#faf6f5" fill-opacity="1"><g transform="translate(164.958886, 182.438148)"><g/></g></g><g fill="#faf6f5" fill-opacity="1"><g transform="translate(174.239827, 182.438148)"><g><path d="M 23.59375 -28.046875 L 23.59375 -9.96875 C 23.59375 -6.519531 22.660156 -3.910156 20.796875 -2.140625 C 18.941406 -0.367188 16.222656 0.515625 12.640625 0.515625 C 9.066406 0.515625 6.347656 -0.367188 4.484375 -2.140625 C 2.628906 -3.910156 1.703125 -6.519531 1.703125 -9.96875 L 1.703125 -28.046875 L 8.09375 -28.046875 L 8.09375 -11.828125 C 8.09375 -9.566406 8.445312 -7.992188 9.15625 -7.109375 C 9.875 -6.222656 11.035156 -5.78125 12.640625 -5.78125 C 14.253906 -5.78125 15.414062 -6.222656 16.125 -7.109375 C 16.84375 -7.992188 17.203125 -9.566406 17.203125 -11.828125 L 17.203125 -28.046875 Z M 23.59375 -28.046875 "/></g></g></g><g fill="#faf6f5" fill-opacity="1"><g transform="translate(199.532927, 182.438148)"><g><path d="M 8.4375 -17.40625 L 8.4375 0 L 2.046875 0 L 2.046875 -28.046875 L 8.4375 -28.046875 L 19.578125 -10.640625 L 19.65625 -10.640625 L 19.65625 -28.046875 L 26.046875 -28.046875 L 26.046875 0 L 19.65625 0 L 8.5 -17.40625 Z M 8.4375 -17.40625 "/></g></g></g><g fill="#faf6f5" fill-opacity="1"><g transform="translate(227.613705, 182.438148)"><g><path d="M 8.4375 -28.046875 L 8.4375 0 L 2.046875 0 L 2.046875 -28.046875 Z M 8.4375 -28.046875 "/></g></g></g><g fill="#faf6f5" fill-opacity="1"><g transform="translate(238.084522, 182.438148)"><g><path d="M 10.8125 0 L -0.953125 -28.046875 L 6.25 -28.046875 L 13.328125 -9.625 L 20.40625 -28.046875 L 27.609375 -28.046875 L 15.84375 0 Z M 10.8125 0 "/></g></g></g><g fill="#faf6f5" fill-opacity="1"><g transform="translate(264.737467, 182.438148)"><g><path d="M 18.09375 -28.046875 L 18.09375 -22.4375 L 8.4375 -22.4375 L 8.4375 -16.859375 L 17.6875 -16.859375 L 17.6875 -11.25 L 8.4375 -11.25 L 8.4375 -5.609375 L 18.09375 -5.609375 L 18.09375 0 L 2.046875 0 L 2.046875 -28.046875 Z M 18.09375 -28.046875 "/></g></g></g><g fill="#faf6f5" fill-opacity="1"><g transform="translate(284.455201, 182.438148)"><g><path d="M 2.046875 -28.046875 L 12.0625 -28.046875 C 14.757812 -28.046875 16.957031 -27.328125 18.65625 -25.890625 C 20.363281 -24.453125 21.21875 -22.394531 21.21875 -19.71875 C 21.21875 -17.65625 20.703125 -15.925781 19.671875 -14.53125 C 18.640625 -13.132812 17.238281 -12.15625 15.46875 -11.59375 L 25.125 0 L 17 0 L 8.4375 -11.078125 L 8.4375 0 L 2.046875 0 Z M 8.4375 -15.609375 L 9.1875 -15.609375 C 9.769531 -15.609375 10.265625 -15.617188 10.671875 -15.640625 C 11.078125 -15.660156 11.539062 -15.738281 12.0625 -15.875 C 12.59375 -16.007812 13.015625 -16.203125 13.328125 -16.453125 C 13.640625 -16.703125 13.910156 -17.066406 14.140625 -17.546875 C 14.367188 -18.023438 14.484375 -18.601562 14.484375 -19.28125 C 14.484375 -19.957031 14.367188 -20.53125 14.140625 -21 C 13.910156 -21.476562 13.640625 -21.84375 13.328125 -22.09375 C 13.015625 -22.34375 12.59375 -22.535156 12.0625 -22.671875 C 11.539062 -22.804688 11.078125 -22.882812 10.671875 -22.90625 C 10.265625 -22.9375 9.769531 -22.953125 9.1875 -22.953125 L 8.4375 -22.953125 Z M 8.4375 -15.609375 "/></g></g></g><g fill="#faf6f5" fill-opacity="1"><g transform="translate(308.796416, 182.438148)"><g><path d="M 12.375 -28.5625 C 13.894531 -28.5625 15.378906 -28.335938 16.828125 -27.890625 C 18.273438 -27.453125 19.351562 -27.019531 20.0625 -26.59375 L 21.078125 -25.90625 L 18.5 -20.8125 C 18.289062 -20.945312 18.003906 -21.117188 17.640625 -21.328125 C 17.285156 -21.546875 16.609375 -21.835938 15.609375 -22.203125 C 14.609375 -22.566406 13.675781 -22.75 12.8125 -22.75 C 11.75 -22.75 10.925781 -22.519531 10.34375 -22.0625 C 9.769531 -21.613281 9.484375 -21.003906 9.484375 -20.234375 C 9.484375 -19.847656 9.617188 -19.488281 9.890625 -19.15625 C 10.160156 -18.832031 10.625 -18.484375 11.28125 -18.109375 C 11.945312 -17.734375 12.523438 -17.429688 13.015625 -17.203125 C 13.515625 -16.972656 14.285156 -16.632812 15.328125 -16.1875 C 17.140625 -15.414062 18.6875 -14.363281 19.96875 -13.03125 C 21.25 -11.707031 21.890625 -10.207031 21.890625 -8.53125 C 21.890625 -6.925781 21.597656 -5.519531 21.015625 -4.3125 C 20.441406 -3.113281 19.648438 -2.171875 18.640625 -1.484375 C 17.640625 -0.804688 16.523438 -0.304688 15.296875 0.015625 C 14.078125 0.347656 12.753906 0.515625 11.328125 0.515625 C 10.097656 0.515625 8.894531 0.390625 7.71875 0.140625 C 6.539062 -0.109375 5.550781 -0.421875 4.75 -0.796875 C 3.957031 -1.171875 3.242188 -1.539062 2.609375 -1.90625 C 1.984375 -2.269531 1.519531 -2.578125 1.21875 -2.828125 L 0.78125 -3.203125 L 3.984375 -8.5625 C 4.253906 -8.34375 4.625 -8.054688 5.09375 -7.703125 C 5.570312 -7.347656 6.414062 -6.875 7.625 -6.28125 C 8.84375 -5.695312 9.914062 -5.40625 10.84375 -5.40625 C 13.539062 -5.40625 14.890625 -6.320312 14.890625 -8.15625 C 14.890625 -8.539062 14.789062 -8.894531 14.59375 -9.21875 C 14.40625 -9.550781 14.066406 -9.878906 13.578125 -10.203125 C 13.097656 -10.535156 12.671875 -10.796875 12.296875 -10.984375 C 11.921875 -11.179688 11.304688 -11.476562 10.453125 -11.875 C 9.609375 -12.28125 8.976562 -12.582031 8.5625 -12.78125 C 6.863281 -13.625 5.550781 -14.671875 4.625 -15.921875 C 3.695312 -17.179688 3.234375 -18.535156 3.234375 -19.984375 C 3.234375 -22.503906 4.160156 -24.5625 6.015625 -26.15625 C 7.878906 -27.757812 10 -28.5625 12.375 -28.5625 Z M 12.375 -28.5625 "/></g></g></g><g fill="#faf6f5" fill-opacity="1"><g transform="translate(331.641797, 182.438148)"><g><path d="M 18.09375 -28.046875 L 18.09375 -22.4375 L 8.4375 -22.4375 L 8.4375 -16.859375 L 17.6875 -16.859375 L 17.6875 -11.25 L 8.4375 -11.25 L 8.4375 -5.609375 L 18.09375 -5.609375 L 18.09375 0 L 2.046875 0 L 2.046875 -28.046875 Z M 18.09375 -28.046875 "/></g></g></g><g clip-path="url(#bfaff38546)"><path fill="#bf1b2c" d="M 114.246094 176.304688 L 115.929688 169.828125 L 113.871094 166.964844 L 109.804688 166.472656 L 112.167969 167.359375 L 113.804688 171.601562 L 109.59375 178.082031 L 112.910156 171.527344 L 111.546875 168.0625 L 108.871094 166.75 C 109.175781 167.246094 109.359375 167.914062 109.359375 168.652344 C 109.359375 170.179688 107.582031 172.554688 107.582031 172.554688 C 107.582031 172.554688 105.804688 170.179688 105.804688 168.652344 C 105.804688 167.914062 105.992188 167.246094 106.292969 166.75 L 103.617188 168.0625 L 102.253906 171.527344 L 105.574219 178.082031 L 101.359375 171.601562 L 103 167.359375 L 105.359375 166.472656 L 101.292969 166.964844 L 99.234375 169.828125 L 100.917969 176.304688 L 98.402344 169.640625 L 100.753906 166.320312 L 105.757812 165.863281 L 102.710938 165.617188 L 99.710938 163.898438 L 101.734375 160.664062 L 100.546875 163.609375 L 103.085938 165.003906 L 105.078125 165.265625 L 103.722656 164.542969 L 102.371094 161.851562 L 106.148438 159.242188 L 103.160156 161.949219 L 104.363281 163.992188 C 104.363281 163.992188 105.09375 164.472656 105.789062 164.933594 L 105.234375 163.828125 L 106.933594 162.652344 L 105.589844 163.871094 L 106.132812 164.792969 C 106.132812 164.792969 106.15625 164.808594 106.203125 164.839844 C 106.425781 164.296875 106.960938 163.914062 107.582031 163.914062 C 108.207031 163.914062 108.738281 164.296875 108.964844 164.839844 C 109.007812 164.808594 109.035156 164.792969 109.035156 164.792969 L 109.578125 163.871094 L 108.230469 162.652344 L 109.933594 163.828125 L 109.375 164.933594 C 110.074219 164.472656 110.800781 163.992188 110.800781 163.992188 L 112.003906 161.949219 L 109.015625 159.242188 L 112.792969 161.851562 L 111.441406 164.542969 L 110.085938 165.265625 L 112.078125 165.003906 L 114.617188 163.609375 L 113.433594 160.664062 L 115.453125 163.898438 L 112.453125 165.617188 L 109.40625 165.863281 L 114.410156 166.320312 L 116.761719 169.640625 Z M 107.582031 157.789062 C 101.578125 157.789062 96.707031 162.65625 96.707031 168.664062 C 96.707031 174.667969 101.578125 179.535156 107.582031 179.535156 C 113.589844 179.535156 118.457031 174.667969 118.457031 168.664062 C 118.457031 162.65625 113.589844 157.789062 107.582031 157.789062 " fill-opacity="1" fill-rule="nonzero"/></g></svg>